<svg xmlns="http://www.w3.org/2000/svg" width="984" height="399" fill="none" viewBox="0 0 984 399">
  <path fill="#000" d="M857.886 169.822v112.734h-54.082v-195h51.543v34.404h2.285c4.316-11.341 11.553-20.312 21.709-26.914 10.156-6.686 22.471-10.029 36.943-10.029 13.542 0 25.348 2.962 35.42 8.887 10.072 5.924 17.9 14.388 23.486 25.39 5.586 10.918 8.379 23.952 8.379 39.102v124.16h-54.082V168.044c.085-11.933-2.962-21.243-9.14-27.929-6.179-6.771-14.685-10.157-25.518-10.157-7.279 0-13.711 1.566-19.297 4.698-5.501 3.131-9.818 7.702-12.949 13.711-3.047 5.924-4.613 13.076-4.697 21.455Zm-167.35 116.543c-19.72 0-36.774-4.19-51.162-12.569-14.303-8.463-25.348-20.227-33.135-35.293-7.786-15.149-11.679-32.711-11.679-52.685 0-20.143 3.893-37.748 11.679-52.813 7.787-15.149 18.832-26.914 33.135-35.293 14.388-8.463 31.442-12.695 51.162-12.695s36.732 4.232 51.035 12.695c14.388 8.379 25.476 20.144 33.262 35.293 7.786 15.065 11.68 32.67 11.68 52.813 0 19.974-3.894 37.536-11.68 52.685-7.786 15.066-18.874 26.83-33.262 35.293-14.303 8.379-31.315 12.569-51.035 12.569Zm.254-41.895c8.971 0 16.462-2.539 22.471-7.617 6.009-5.163 10.537-12.187 13.584-21.074 3.131-8.887 4.697-19.001 4.697-30.342 0-11.341-1.566-21.455-4.697-30.342-3.047-8.887-7.575-15.911-13.584-21.074-6.009-5.163-13.5-7.744-22.471-7.744-9.056 0-16.673 2.581-22.852 7.744-6.093 5.163-10.706 12.187-13.837 21.074-3.047 8.887-4.571 19.001-4.571 30.342 0 11.341 1.524 21.455 4.571 30.342 3.131 8.887 7.744 15.911 13.837 21.074 6.179 5.078 13.796 7.617 22.852 7.617Zm-167.889 38.086v-195h54.082v195h-54.082Zm-20.624-139.394-49.511 3.046c-.847-4.231-2.666-8.04-5.459-11.425-2.793-3.47-6.475-6.221-11.045-8.252-4.486-2.116-9.86-3.174-16.123-3.174-8.379 0-15.446 1.777-21.201 5.332-5.756 3.47-8.633 8.125-8.633 13.965 0 4.655 1.862 8.59 5.586 11.806 3.724 3.217 10.114 5.798 19.17 7.745l35.293 7.109c18.958 3.893 33.092 10.156 42.402 18.789 9.31 8.633 13.965 19.974 13.965 34.023 0 12.78-3.767 23.995-11.299 33.643-7.448 9.648-17.689 17.181-30.723 22.598-12.949 5.332-27.887 7.998-44.814 7.998-25.814 0-46.38-5.375-61.699-16.123-15.235-10.834-24.164-25.56-26.788-44.18l53.194-2.793c1.608 7.871 5.501 13.88 11.679 18.027 6.179 4.063 14.092 6.094 23.741 6.094 9.479 0 17.096-1.82 22.851-5.459 5.84-3.724 8.802-8.506 8.887-14.346-.085-4.908-2.158-8.929-6.221-12.06-4.062-3.216-10.325-5.671-18.789-7.363l-33.769-6.729c-19.043-3.808-33.22-10.41-42.53-19.805-9.225-9.394-13.837-21.37-13.837-35.927 0-12.526 3.385-23.317 10.156-32.373 6.855-9.056 16.461-16.039 28.818-20.948 12.442-4.908 26.999-7.363 43.672-7.363 24.629 0 44.01 5.205 58.145 15.615 14.218 10.41 22.513 24.587 24.882 42.53Zm-241.712 56.367V87.556h54.082v195h-51.924v-35.42h-2.031c-4.401 11.426-11.722 20.609-21.963 27.549-10.156 6.94-22.555 10.41-37.197 10.41-13.034 0-24.502-2.962-34.405-8.886-9.902-5.925-17.646-14.346-23.232-25.264-5.501-10.918-8.294-23.994-8.379-39.229V87.556h54.082v114.512c.085 11.51 3.174 20.609 9.268 27.295 6.093 6.686 14.261 10.029 24.502 10.029 6.517 0 12.61-1.481 18.281-4.443 5.67-3.047 10.241-7.533 13.711-13.457 3.555-5.925 5.29-13.246 5.205-21.963Z"/>
  <path fill="#000" d="M151.921 87.556v40.625H0V87.556h151.921Zm-124.372 195V73.464c0-14.134 2.75-25.856 8.252-35.166 5.586-9.31 13.203-16.292 22.851-20.947 9.649-4.655 20.61-6.982 32.881-6.982 8.294 0 15.869.634 22.725 1.904 6.94 1.27 12.103 2.412 15.488 3.428l-9.648 40.625c-2.116-.677-4.74-1.312-7.871-1.905a49.113 49.113 0 0 0-9.395-.888c-7.956 0-13.5 1.862-16.63 5.586-3.132 3.639-4.698 8.76-4.698 15.361v208.076H27.549ZM581.292 17.999c1.234-1.856 3.89-2.064 5.213-.27 4.671 6.333 7.008 13.524 7.008 21.576 0 10.847-4.144 20.17-12.432 27.97-8.165 7.678-18.037 11.517-29.615 11.517a49.31 49.31 0 0 1-4.937-.244c-2.407-.242-3.523-2.959-2.184-4.973l36.947-55.576ZM551.466 0c8.433 0 15.96 2.07 22.583 6.208 2.015 1.26 1.847 4.135-.177 5.38l-59.086 36.375c-1.923 1.184-4.446.216-4.822-2.01a39.843 39.843 0 0 1-.545-6.648c0-10.725 4.082-19.927 12.248-27.605C529.954 3.9 539.888 0 551.466 0Z"/>
  <path fill="#000" d="M227.687 385.365v-30.668h3.74v13.596l-.924.352c.411-1.115.983-2.068 1.716-2.86a7.261 7.261 0 0 1 2.596-1.804c.997-.44 2.083-.66 3.256-.66 2.376 0 4.239.704 5.588 2.112 1.349 1.378 2.024 3.432 2.024 6.16v13.772h-3.74v-12.408c0-2.2-.411-3.814-1.232-4.84-.792-1.056-2.009-1.584-3.652-1.584-1.789 0-3.183.645-4.18 1.936-.968 1.261-1.452 3.285-1.452 6.072v10.824h-3.74Zm25.66 8.932 4.136-9.988-8.448-20.636h4.092l6.336 16.896 6.38-16.896h4.048l-12.496 30.624h-4.048Zm31.437-8.58c-1.378 0-2.625-.264-3.74-.792a8.36 8.36 0 0 1-2.772-2.288c-.733-.968-1.29-2.083-1.672-3.344l1.232-.396v6.468h-3.696v-30.668h3.696v15.444l-1.056-.616a8.999 8.999 0 0 1 1.584-3.124 8.126 8.126 0 0 1 2.728-2.244c1.086-.558 2.318-.836 3.696-.836 1.819 0 3.476.454 4.972 1.364 1.496.909 2.684 2.2 3.564 3.872.88 1.672 1.32 3.652 1.32 5.94 0 2.112-.41 4.018-1.232 5.72-.821 1.701-1.98 3.05-3.476 4.048-1.466.968-3.182 1.452-5.148 1.452Zm-.616-3.432c1.32 0 2.479-.323 3.476-.968 1.027-.675 1.819-1.599 2.376-2.772.587-1.174.88-2.523.88-4.048 0-1.526-.293-2.875-.88-4.048-.557-1.174-1.349-2.083-2.376-2.728-.997-.675-2.156-1.012-3.476-1.012-1.32 0-2.478.337-3.476 1.012-.997.645-1.774 1.554-2.332 2.728-.557 1.173-.836 2.522-.836 4.048 0 1.525.279 2.874.836 4.048.558 1.173 1.335 2.097 2.332 2.772.998.645 2.156.968 3.476.968Zm15.792 3.08v-21.692h3.74v5.808l-.968.22c.206-1.291.69-2.406 1.452-3.344.792-.968 1.702-1.716 2.728-2.244 1.056-.528 2.083-.792 3.08-.792.675 0 1.32.073 1.936.22a7.65 7.65 0 0 1 1.892.748l-1.848 3.344a5.85 5.85 0 0 0-1.276-.44 5.582 5.582 0 0 0-1.364-.176c-.704 0-1.408.132-2.112.396a5.377 5.377 0 0 0-1.848 1.232c-.557.557-.982 1.305-1.276 2.244-.117.41-.22.953-.308 1.628-.058.645-.088 1.54-.088 2.684v10.164h-3.74Zm17.874 0v-21.692h3.696v21.692h-3.696Zm-.352-25.608v-5.06h4.4v5.06h-4.4Zm19.166 25.96c-1.965 0-3.696-.484-5.192-1.452-1.466-.998-2.61-2.347-3.432-4.048-.821-1.702-1.232-3.608-1.232-5.72 0-2.288.44-4.268 1.32-5.94.88-1.672 2.068-2.963 3.564-3.872 1.496-.91 3.154-1.364 4.972-1.364 1.379 0 2.611.278 3.696.836a7.662 7.662 0 0 1 2.728 2.2 7.708 7.708 0 0 1 1.584 3.08l-1.056.704v-15.444h3.696v30.668H343.6v-6.468l1.232.396c-.381 1.261-.953 2.376-1.716 3.344a8.34 8.34 0 0 1-2.772 2.288c-1.085.528-2.317.792-3.696.792Zm.616-3.432c1.32 0 2.479-.323 3.476-.968.998-.675 1.775-1.599 2.332-2.772.558-1.174.836-2.523.836-4.048 0-1.526-.278-2.875-.836-4.048-.557-1.174-1.334-2.083-2.332-2.728-.997-.675-2.156-1.012-3.476-1.012-1.32 0-2.493.337-3.52 1.012-.997.645-1.789 1.554-2.376 2.728-.557 1.173-.836 2.522-.836 4.048 0 1.525.279 2.874.836 4.048.587 1.173 1.379 2.097 2.376 2.772 1.027.645 2.2.968 3.52.968Zm38.442 3.432c-1.379 0-2.625-.264-3.74-.792a8.36 8.36 0 0 1-2.772-2.288c-.733-.968-1.291-2.083-1.672-3.344l1.232-.396v6.468h-3.696v-30.668h3.696v15.444l-1.056-.616a8.999 8.999 0 0 1 1.584-3.124 8.116 8.116 0 0 1 2.728-2.244c1.085-.558 2.317-.836 3.696-.836 1.819 0 3.476.454 4.972 1.364 1.496.909 2.684 2.2 3.564 3.872.88 1.672 1.32 3.652 1.32 5.94 0 2.112-.411 4.018-1.232 5.72-.821 1.701-1.98 3.05-3.476 4.048-1.467.968-3.183 1.452-5.148 1.452Zm-.616-3.432c1.32 0 2.479-.323 3.476-.968 1.027-.675 1.819-1.599 2.376-2.772.587-1.174.88-2.523.88-4.048 0-1.526-.293-2.875-.88-4.048-.557-1.174-1.349-2.083-2.376-2.728-.997-.675-2.156-1.012-3.476-1.012-1.32 0-2.479.337-3.476 1.012-.997.645-1.775 1.554-2.332 2.728-.557 1.173-.836 2.522-.836 4.048 0 1.525.279 2.874.836 4.048.557 1.173 1.335 2.097 2.332 2.772.997.645 2.156.968 3.476.968Zm25.34 3.432c-2.024 0-3.842-.47-5.456-1.408-1.584-.968-2.83-2.303-3.74-4.004-.909-1.702-1.364-3.638-1.364-5.808 0-2.171.44-4.092 1.32-5.764.91-1.702 2.156-3.022 3.74-3.96 1.614-.968 3.447-1.452 5.5-1.452 2.054 0 3.858.484 5.412 1.452 1.584.938 2.831 2.258 3.74 3.96.91 1.672 1.364 3.593 1.364 5.764 0 2.17-.454 4.106-1.364 5.808-.909 1.672-2.156 2.992-3.74 3.96s-3.388 1.452-5.412 1.452Zm0-3.3c1.379 0 2.567-.323 3.564-.968 1.027-.675 1.819-1.599 2.376-2.772.558-1.203.836-2.596.836-4.18 0-1.614-.278-3.007-.836-4.18-.557-1.203-1.349-2.127-2.376-2.772-.997-.646-2.185-.968-3.564-.968-1.408 0-2.625.337-3.652 1.012-1.026.645-1.818 1.554-2.376 2.728-.557 1.173-.836 2.566-.836 4.18 0 1.584.279 2.977.836 4.18.558 1.173 1.35 2.097 2.376 2.772 1.027.645 2.244.968 3.652.968Zm22.59 3.3c-1.026 0-1.965-.191-2.816-.572-.821-.411-1.466-1.056-1.936-1.936-.469-.88-.704-2.01-.704-3.388v-21.956l3.784-2.112v23.1c0 1.202.191 2.141.572 2.816.382.645 1.071.968 2.068.968.294 0 .646-.03 1.056-.088.411-.088.851-.191 1.32-.308v2.904a8.683 8.683 0 0 1-1.716.44c-.557.088-1.1.132-1.628.132Zm-9.944-19.14v-2.904h13.288v2.904h-13.288Zm38.213 19.14c-1.965 0-3.696-.484-5.192-1.452-1.467-.998-2.611-2.347-3.432-4.048-.821-1.702-1.232-3.608-1.232-5.72 0-2.288.44-4.268 1.32-5.94.88-1.672 2.068-2.963 3.564-3.872 1.496-.91 3.153-1.364 4.972-1.364 1.379 0 2.611.278 3.696.836a7.67 7.67 0 0 1 2.728 2.2 7.708 7.708 0 0 1 1.584 3.08l-1.056.704v-15.444h3.696v30.668h-3.696v-6.468l1.232.396c-.381 1.261-.953 2.376-1.716 3.344a8.36 8.36 0 0 1-2.772 2.288c-1.085.528-2.317.792-3.696.792Zm.616-3.432c1.32 0 2.479-.323 3.476-.968.997-.675 1.775-1.599 2.332-2.772.557-1.174.836-2.523.836-4.048 0-1.526-.279-2.875-.836-4.048-.557-1.174-1.335-2.083-2.332-2.728-.997-.675-2.156-1.012-3.476-1.012-1.32 0-2.493.337-3.52 1.012-.997.645-1.789 1.554-2.376 2.728-.557 1.173-.836 2.522-.836 4.048 0 1.525.279 2.874.836 4.048.587 1.173 1.379 2.097 2.376 2.772 1.027.645 2.2.968 3.52.968Zm25.516 3.432c-1.701 0-3.197-.279-4.488-.836a8.974 8.974 0 0 1-3.168-2.42 11.31 11.31 0 0 1-1.892-3.52 14.571 14.571 0 0 1-.616-4.268c0-1.496.205-2.919.616-4.268.411-1.379 1.012-2.596 1.804-3.652a8.866 8.866 0 0 1 3.08-2.508c1.232-.616 2.669-.924 4.312-.924 1.672 0 3.109.293 4.312.88 1.232.557 2.229 1.334 2.992 2.332a10.149 10.149 0 0 1 1.76 3.344c.381 1.232.572 2.508.572 3.828 0 .117-.015.396-.044.836 0 .41-.029.777-.088 1.1h-15.62c.088 2.112.704 3.754 1.848 4.928 1.144 1.173 2.699 1.76 4.664 1.76 1.261 0 2.361-.206 3.3-.616.939-.411 1.819-1.071 2.64-1.98l2.596 2.288a12.84 12.84 0 0 1-2.508 2.112c-.88.528-1.819.924-2.816 1.188-.968.264-2.053.396-3.256.396Zm5.588-11.968c.059-.235.088-.47.088-.704.029-.235.044-.47.044-.704 0-.704-.132-1.408-.396-2.112a5.341 5.341 0 0 0-1.1-1.892c-.469-.587-1.085-1.042-1.848-1.364-.733-.352-1.613-.528-2.64-.528-1.261 0-2.347.293-3.256.88a5.994 5.994 0 0 0-2.112 2.332c-.499.968-.792 2.038-.88 3.212h13.332l-1.232.88Zm16.023 11.968c-1.027 0-1.965-.191-2.816-.572-.821-.411-1.467-1.056-1.936-1.936-.469-.88-.704-2.01-.704-3.388v-21.956l3.784-2.112v23.1c0 1.202.191 2.141.572 2.816.381.645 1.071.968 2.068.968.293 0 .645-.03 1.056-.088.411-.088.851-.191 1.32-.308v2.904a8.683 8.683 0 0 1-1.716.44c-.557.088-1.1.132-1.628.132Zm-9.944-19.14v-2.904h13.288v2.904h-13.288Zm26.661 19.14c-1.701 0-3.197-.279-4.488-.836a8.974 8.974 0 0 1-3.168-2.42 11.31 11.31 0 0 1-1.892-3.52 14.605 14.605 0 0 1-.616-4.268 14.6 14.6 0 0 1 .616-4.268c.411-1.379 1.012-2.596 1.804-3.652a8.876 8.876 0 0 1 3.08-2.508c1.232-.616 2.67-.924 4.312-.924 1.672 0 3.11.293 4.312.88 1.232.557 2.23 1.334 2.992 2.332a10.149 10.149 0 0 1 1.76 3.344 12.85 12.85 0 0 1 .572 3.828c0 .117-.014.396-.044.836 0 .41-.029.777-.088 1.1h-15.62c.088 2.112.704 3.754 1.848 4.928 1.144 1.173 2.699 1.76 4.664 1.76 1.262 0 2.362-.206 3.3-.616.939-.411 1.819-1.071 2.64-1.98l2.596 2.288a12.84 12.84 0 0 1-2.508 2.112c-.88.528-1.818.924-2.816 1.188-.968.264-2.053.396-3.256.396Zm5.588-11.968c.059-.235.088-.47.088-.704.03-.235.044-.47.044-.704 0-.704-.132-1.408-.396-2.112a5.326 5.326 0 0 0-1.1-1.892c-.469-.587-1.085-1.042-1.848-1.364-.733-.352-1.613-.528-2.64-.528-1.261 0-2.346.293-3.256.88a5.994 5.994 0 0 0-2.112 2.332c-.498.968-.792 2.038-.88 3.212h13.332l-1.232.88Zm18.042 11.968c-1.613 0-3.051-.294-4.312-.88a9.077 9.077 0 0 1-3.124-2.42 11.254 11.254 0 0 1-1.936-3.608c-.44-1.35-.66-2.787-.66-4.312 0-1.496.22-2.919.66-4.268.44-1.35 1.085-2.538 1.936-3.564a8.836 8.836 0 0 1 3.124-2.464c1.261-.587 2.699-.88 4.312-.88 2.053 0 3.843.498 5.368 1.496 1.555.997 2.699 2.522 3.432 4.576l-3.3 1.276c-.411-1.232-1.071-2.23-1.98-2.992-.909-.763-2.083-1.144-3.52-1.144-1.437 0-2.625.381-3.564 1.144-.939.762-1.643 1.745-2.112 2.948-.44 1.202-.66 2.493-.66 3.872 0 1.378.22 2.684.66 3.916.469 1.202 1.173 2.185 2.112 2.948.939.733 2.127 1.1 3.564 1.1 1.437 0 2.611-.367 3.52-1.1.909-.763 1.569-1.775 1.98-3.036l3.3 1.276c-.733 2.053-1.877 3.593-3.432 4.62-1.525.997-3.315 1.496-5.368 1.496Zm20.969 0c-1.026 0-1.965-.191-2.816-.572-.821-.411-1.466-1.056-1.936-1.936-.469-.88-.704-2.01-.704-3.388v-21.956l3.784-2.112v23.1c0 1.202.191 2.141.572 2.816.382.645 1.071.968 2.068.968.294 0 .646-.03 1.056-.088.411-.088.851-.191 1.32-.308v2.904a8.683 8.683 0 0 1-1.716.44c-.557.088-1.1.132-1.628.132Zm-9.944-19.14v-2.904h13.288v2.904h-13.288Zm17.895 18.788v-21.692h3.696v21.692h-3.696Zm-.352-25.608v-5.06h4.4v5.06h-4.4Zm19.87 25.96c-2.024 0-3.843-.47-5.456-1.408-1.584-.968-2.831-2.303-3.74-4.004-.909-1.702-1.364-3.638-1.364-5.808 0-2.171.44-4.092 1.32-5.764.909-1.702 2.156-3.022 3.74-3.96 1.613-.968 3.447-1.452 5.5-1.452s3.857.484 5.412 1.452c1.584.938 2.831 2.258 3.74 3.96.909 1.672 1.364 3.593 1.364 5.764 0 2.17-.455 4.106-1.364 5.808-.909 1.672-2.156 2.992-3.74 3.96s-3.388 1.452-5.412 1.452Zm0-3.3c1.379 0 2.567-.323 3.564-.968 1.027-.675 1.819-1.599 2.376-2.772.557-1.203.836-2.596.836-4.18 0-1.614-.279-3.007-.836-4.18-.557-1.203-1.349-2.127-2.376-2.772-.997-.646-2.185-.968-3.564-.968-1.408 0-2.625.337-3.652 1.012-1.027.645-1.819 1.554-2.376 2.728-.557 1.173-.836 2.566-.836 4.18 0 1.584.279 2.977.836 4.18.557 1.173 1.349 2.097 2.376 2.772 1.027.645 2.244.968 3.652.968Zm15.847 2.948v-21.692h3.74v4.62l-.88.308c.41-1.115.968-2.054 1.672-2.816a6.85 6.85 0 0 1 2.552-1.804c.997-.44 2.097-.66 3.3-.66 2.376 0 4.238.704 5.588 2.112 1.349 1.378 2.024 3.432 2.024 6.16v13.772h-3.74v-12.408c0-2.2-.411-3.814-1.232-4.84-.792-1.056-2.01-1.584-3.652-1.584-1.203 0-2.23.278-3.08.836-.822.557-1.452 1.437-1.892 2.64-.44 1.173-.66 2.684-.66 4.532v10.824h-3.74Zm35.492 0v-21.692h3.74v5.588h-.748c.264-1.027.616-1.907 1.056-2.64.469-.763 1.012-1.379 1.628-1.848a6.282 6.282 0 0 1 1.98-1.1 7.45 7.45 0 0 1 2.288-.352c1.32 0 2.478.249 3.476.748.997.498 1.818 1.261 2.464 2.288.645.997 1.085 2.273 1.32 3.828l-2.112.132c.44-1.496.997-2.758 1.672-3.784.674-1.056 1.51-1.848 2.508-2.376 1.026-.558 2.244-.836 3.652-.836 1.789 0 3.226.41 4.312 1.232 1.085.792 1.877 1.862 2.376 3.212.498 1.32.748 2.786.748 4.4v13.2h-3.696v-12.32c0-1.35-.162-2.508-.484-3.476-.294-.968-.778-1.716-1.452-2.244-.646-.528-1.526-.792-2.64-.792-1.056 0-1.966.264-2.728.792-.734.528-1.306 1.334-1.716 2.42-.382 1.056-.572 2.376-.572 3.96v11.66h-3.74v-12.628c0-2.083-.382-3.638-1.144-4.664-.763-1.027-1.878-1.54-3.344-1.54-1.056 0-1.966.278-2.728.836-.763.528-1.35 1.32-1.76 2.376-.411 1.056-.616 2.376-.616 3.96v11.66h-3.74Zm45.985.352c-2.024 0-3.842-.47-5.456-1.408-1.584-.968-2.83-2.303-3.74-4.004-.909-1.702-1.364-3.638-1.364-5.808 0-2.171.44-4.092 1.32-5.764.91-1.702 2.156-3.022 3.74-3.96 1.614-.968 3.447-1.452 5.5-1.452 2.054 0 3.858.484 5.412 1.452 1.584.938 2.831 2.258 3.74 3.96.91 1.672 1.364 3.593 1.364 5.764 0 2.17-.454 4.106-1.364 5.808-.909 1.672-2.156 2.992-3.74 3.96s-3.388 1.452-5.412 1.452Zm0-3.3c1.379 0 2.567-.323 3.564-.968 1.027-.675 1.819-1.599 2.376-2.772.558-1.203.836-2.596.836-4.18 0-1.614-.278-3.007-.836-4.18-.557-1.203-1.349-2.127-2.376-2.772-.997-.646-2.185-.968-3.564-.968-1.408 0-2.625.337-3.652 1.012-1.026.645-1.818 1.554-2.376 2.728-.557 1.173-.836 2.566-.836 4.18 0 1.584.279 2.977.836 4.18.558 1.173 1.35 2.097 2.376 2.772 1.027.645 2.244.968 3.652.968Zm24.691 3.3c-1.966 0-3.696-.484-5.192-1.452-1.467-.998-2.611-2.347-3.432-4.048-.822-1.702-1.232-3.608-1.232-5.72 0-2.288.44-4.268 1.32-5.94.88-1.672 2.068-2.963 3.564-3.872 1.496-.91 3.153-1.364 4.972-1.364 1.378 0 2.61.278 3.696.836a7.679 7.679 0 0 1 2.728 2.2 7.734 7.734 0 0 1 1.584 3.08l-1.056.704v-15.444h3.696v30.668h-3.696v-6.468l1.232.396c-.382 1.261-.954 2.376-1.716 3.344a8.36 8.36 0 0 1-2.772 2.288c-1.086.528-2.318.792-3.696.792Zm.616-3.432c1.32 0 2.478-.323 3.476-.968.997-.675 1.774-1.599 2.332-2.772.557-1.174.836-2.523.836-4.048 0-1.526-.279-2.875-.836-4.048-.558-1.174-1.335-2.083-2.332-2.728-.998-.675-2.156-1.012-3.476-1.012-1.32 0-2.494.337-3.52 1.012-.998.645-1.79 1.554-2.376 2.728-.558 1.173-.836 2.522-.836 4.048 0 1.525.278 2.874.836 4.048.586 1.173 1.378 2.097 2.376 2.772 1.026.645 2.2.968 3.52.968Zm25.516 3.432c-1.701 0-3.197-.279-4.488-.836a8.974 8.974 0 0 1-3.168-2.42 11.31 11.31 0 0 1-1.892-3.52 14.571 14.571 0 0 1-.616-4.268c0-1.496.205-2.919.616-4.268.411-1.379 1.012-2.596 1.804-3.652a8.866 8.866 0 0 1 3.08-2.508c1.232-.616 2.669-.924 4.312-.924 1.672 0 3.109.293 4.312.88 1.232.557 2.229 1.334 2.992 2.332a10.149 10.149 0 0 1 1.76 3.344c.381 1.232.572 2.508.572 3.828 0 .117-.015.396-.044.836 0 .41-.029.777-.088 1.1h-15.62c.088 2.112.704 3.754 1.848 4.928 1.144 1.173 2.699 1.76 4.664 1.76 1.261 0 2.361-.206 3.3-.616.939-.411 1.819-1.071 2.64-1.98l2.596 2.288a12.84 12.84 0 0 1-2.508 2.112c-.88.528-1.819.924-2.816 1.188-.968.264-2.053.396-3.256.396Zm5.588-11.968c.059-.235.088-.47.088-.704.029-.235.044-.47.044-.704 0-.704-.132-1.408-.396-2.112a5.341 5.341 0 0 0-1.1-1.892c-.469-.587-1.085-1.042-1.848-1.364-.733-.352-1.613-.528-2.64-.528-1.261 0-2.347.293-3.256.88a5.994 5.994 0 0 0-2.112 2.332c-.499.968-.792 2.038-.88 3.212h13.332l-1.232.88Zm13.378 11.968c-1.32 0-2.391-.411-3.212-1.232-.822-.822-1.232-2.127-1.232-3.916v-25.872h3.696v25.168c0 .85.176 1.466.528 1.848.352.381.821.572 1.408.572.264 0 .557-.03.88-.088.322-.059.66-.147 1.012-.264v3.168a7.047 7.047 0 0 1-1.584.44 7.373 7.373 0 0 1-1.496.176Z" opacity=".8"/>
</svg>
